<mxfile host="app.diagrams.net" agent="Mozilla/5.0 (Windows NT 10.0; Win64; x64) AppleWebKit/537.36 (KHTML, like Gecko) Chrome/131.0.0.0 Safari/537.36" version="26.2.9">
  <diagram name="第 1 页" id="Wzt9n_Vputwp239YugQn">
    <mxGraphModel dx="2040" dy="1244" grid="1" gridSize="10" guides="1" tooltips="1" connect="1" arrows="1" fold="1" page="1" pageScale="1" pageWidth="850" pageHeight="1100" math="0" shadow="0">
      <root>
        <mxCell id="0" />
        <mxCell id="1" parent="0" />
        <mxCell id="eNTQeGSR-nu6t5WLEABi-2" value="读取RFID流程" style="swimlane;html=1;childLayout=stackLayout;startSize=20;rounded=0;shadow=0;comic=0;labelBackgroundColor=none;strokeWidth=1;fontFamily=Verdana;fontSize=12;align=center;" vertex="1" parent="1">
          <mxGeometry x="133" y="90" width="1000" height="1230" as="geometry" />
        </mxCell>
        <mxCell id="eNTQeGSR-nu6t5WLEABi-3" value="MCS" style="swimlane;html=1;startSize=20;" vertex="1" parent="eNTQeGSR-nu6t5WLEABi-2">
          <mxGeometry y="20" width="320" height="1210" as="geometry" />
        </mxCell>
        <mxCell id="eNTQeGSR-nu6t5WLEABi-4" style="edgeStyle=orthogonalEdgeStyle;rounded=0;orthogonalLoop=1;jettySize=auto;html=1;exitX=0.5;exitY=1;exitDx=0;exitDy=0;entryX=0.363;entryY=-0.061;entryDx=0;entryDy=0;entryPerimeter=0;" edge="1" parent="eNTQeGSR-nu6t5WLEABi-3" source="eNTQeGSR-nu6t5WLEABi-5" target="eNTQeGSR-nu6t5WLEABi-87">
          <mxGeometry relative="1" as="geometry">
            <mxPoint x="147" y="140" as="targetPoint" />
          </mxGeometry>
        </mxCell>
        <mxCell id="eNTQeGSR-nu6t5WLEABi-132" style="edgeStyle=orthogonalEdgeStyle;rounded=0;orthogonalLoop=1;jettySize=auto;html=1;exitX=0.5;exitY=1;exitDx=0;exitDy=0;" edge="1" parent="eNTQeGSR-nu6t5WLEABi-3" source="eNTQeGSR-nu6t5WLEABi-5" target="eNTQeGSR-nu6t5WLEABi-93">
          <mxGeometry relative="1" as="geometry" />
        </mxCell>
        <mxCell id="eNTQeGSR-nu6t5WLEABi-5" value="任务生成" style="ellipse;whiteSpace=wrap;html=1;rounded=0;shadow=0;comic=0;labelBackgroundColor=none;strokeWidth=1;fontFamily=Verdana;fontSize=12;align=center;fillColor=#d5e8d4;strokeColor=#82b366;" vertex="1" parent="eNTQeGSR-nu6t5WLEABi-3">
          <mxGeometry x="101.5" y="50" width="93" height="40" as="geometry" />
        </mxCell>
        <mxCell id="eNTQeGSR-nu6t5WLEABi-87" value="正常返回mes" style="rounded=0;whiteSpace=wrap;html=1;shadow=0;comic=0;labelBackgroundColor=none;strokeWidth=1;fontFamily=Verdana;fontSize=12;align=center;arcSize=50;" vertex="1" parent="eNTQeGSR-nu6t5WLEABi-3">
          <mxGeometry x="112.5" y="654" width="95" height="30" as="geometry" />
        </mxCell>
        <mxCell id="eNTQeGSR-nu6t5WLEABi-101" style="edgeStyle=orthogonalEdgeStyle;rounded=0;orthogonalLoop=1;jettySize=auto;html=1;exitX=0.5;exitY=1;exitDx=0;exitDy=0;entryX=0.5;entryY=0;entryDx=0;entryDy=0;" edge="1" parent="eNTQeGSR-nu6t5WLEABi-3" source="eNTQeGSR-nu6t5WLEABi-93" target="eNTQeGSR-nu6t5WLEABi-95">
          <mxGeometry relative="1" as="geometry" />
        </mxCell>
        <mxCell id="eNTQeGSR-nu6t5WLEABi-93" value="RFID错误" style="rounded=0;whiteSpace=wrap;html=1;shadow=0;comic=0;labelBackgroundColor=none;strokeWidth=1;fontFamily=Verdana;fontSize=12;align=center;arcSize=50;" vertex="1" parent="eNTQeGSR-nu6t5WLEABi-3">
          <mxGeometry x="27" y="830" width="95" height="30" as="geometry" />
        </mxCell>
        <mxCell id="eNTQeGSR-nu6t5WLEABi-108" style="edgeStyle=orthogonalEdgeStyle;rounded=0;orthogonalLoop=1;jettySize=auto;html=1;exitX=0.5;exitY=1;exitDx=0;exitDy=0;entryX=0.5;entryY=0;entryDx=0;entryDy=0;" edge="1" parent="eNTQeGSR-nu6t5WLEABi-3" source="eNTQeGSR-nu6t5WLEABi-95" target="eNTQeGSR-nu6t5WLEABi-106">
          <mxGeometry relative="1" as="geometry" />
        </mxCell>
        <mxCell id="eNTQeGSR-nu6t5WLEABi-95" value="abort任务" style="rounded=0;whiteSpace=wrap;html=1;shadow=0;comic=0;labelBackgroundColor=none;strokeWidth=1;fontFamily=Verdana;fontSize=12;align=center;arcSize=50;" vertex="1" parent="eNTQeGSR-nu6t5WLEABi-3">
          <mxGeometry x="27" y="880" width="95" height="30" as="geometry" />
        </mxCell>
        <mxCell id="eNTQeGSR-nu6t5WLEABi-111" style="edgeStyle=orthogonalEdgeStyle;rounded=0;orthogonalLoop=1;jettySize=auto;html=1;exitX=0.5;exitY=1;exitDx=0;exitDy=0;entryX=0.5;entryY=0;entryDx=0;entryDy=0;" edge="1" parent="eNTQeGSR-nu6t5WLEABi-3" source="eNTQeGSR-nu6t5WLEABi-106" target="eNTQeGSR-nu6t5WLEABi-109">
          <mxGeometry relative="1" as="geometry" />
        </mxCell>
        <mxCell id="eNTQeGSR-nu6t5WLEABi-106" value="abort任务成功" style="rounded=0;whiteSpace=wrap;html=1;shadow=0;comic=0;labelBackgroundColor=none;strokeWidth=1;fontFamily=Verdana;fontSize=12;align=center;arcSize=50;" vertex="1" parent="eNTQeGSR-nu6t5WLEABi-3">
          <mxGeometry x="27" y="930" width="95" height="30" as="geometry" />
        </mxCell>
        <mxCell id="eNTQeGSR-nu6t5WLEABi-109" value="新放货任务" style="rounded=0;whiteSpace=wrap;html=1;shadow=0;comic=0;labelBackgroundColor=none;strokeWidth=1;fontFamily=Verdana;fontSize=12;align=center;arcSize=50;" vertex="1" parent="eNTQeGSR-nu6t5WLEABi-3">
          <mxGeometry x="27" y="980" width="95" height="30" as="geometry" />
        </mxCell>
        <mxCell id="eNTQeGSR-nu6t5WLEABi-20" value="MSTC" style="swimlane;html=1;startSize=20;" vertex="1" parent="eNTQeGSR-nu6t5WLEABi-2">
          <mxGeometry x="320" y="20" width="250" height="1210" as="geometry" />
        </mxCell>
        <mxCell id="eNTQeGSR-nu6t5WLEABi-24" style="edgeStyle=orthogonalEdgeStyle;rounded=0;orthogonalLoop=1;jettySize=auto;html=1;exitX=0.5;exitY=1;exitDx=0;exitDy=0;entryX=0.5;entryY=0;entryDx=0;entryDy=0;" edge="1" parent="eNTQeGSR-nu6t5WLEABi-20" source="eNTQeGSR-nu6t5WLEABi-25" target="eNTQeGSR-nu6t5WLEABi-26">
          <mxGeometry relative="1" as="geometry" />
        </mxCell>
        <mxCell id="eNTQeGSR-nu6t5WLEABi-25" value="取放任务" style="rounded=1;whiteSpace=wrap;html=1;shadow=0;comic=0;labelBackgroundColor=none;strokeWidth=1;fontFamily=Verdana;fontSize=12;align=center;arcSize=50;" vertex="1" parent="eNTQeGSR-nu6t5WLEABi-20">
          <mxGeometry x="85" y="110" width="100" height="30" as="geometry" />
        </mxCell>
        <mxCell id="eNTQeGSR-nu6t5WLEABi-131" style="edgeStyle=orthogonalEdgeStyle;rounded=0;orthogonalLoop=1;jettySize=auto;html=1;exitX=0.5;exitY=1;exitDx=0;exitDy=0;" edge="1" parent="eNTQeGSR-nu6t5WLEABi-20" source="eNTQeGSR-nu6t5WLEABi-26" target="eNTQeGSR-nu6t5WLEABi-66">
          <mxGeometry relative="1" as="geometry" />
        </mxCell>
        <mxCell id="eNTQeGSR-nu6t5WLEABi-26" value="取货路径" style="rounded=0;whiteSpace=wrap;html=1;shadow=0;comic=0;labelBackgroundColor=none;strokeWidth=1;fontFamily=Verdana;fontSize=12;align=center;arcSize=50;" vertex="1" parent="eNTQeGSR-nu6t5WLEABi-20">
          <mxGeometry x="88" y="180" width="95" height="30" as="geometry" />
        </mxCell>
        <mxCell id="eNTQeGSR-nu6t5WLEABi-80" style="edgeStyle=orthogonalEdgeStyle;rounded=0;orthogonalLoop=1;jettySize=auto;html=1;entryX=0.5;entryY=0;entryDx=0;entryDy=0;" edge="1" parent="eNTQeGSR-nu6t5WLEABi-20" source="eNTQeGSR-nu6t5WLEABi-66" target="eNTQeGSR-nu6t5WLEABi-67">
          <mxGeometry relative="1" as="geometry" />
        </mxCell>
        <mxCell id="eNTQeGSR-nu6t5WLEABi-66" value="取货结算" style="rounded=0;whiteSpace=wrap;html=1;shadow=0;comic=0;labelBackgroundColor=none;strokeWidth=1;fontFamily=Verdana;fontSize=12;align=center;arcSize=50;" vertex="1" parent="eNTQeGSR-nu6t5WLEABi-20">
          <mxGeometry x="88" y="470" width="95" height="30" as="geometry" />
        </mxCell>
        <mxCell id="eNTQeGSR-nu6t5WLEABi-68" style="edgeStyle=orthogonalEdgeStyle;rounded=0;orthogonalLoop=1;jettySize=auto;html=1;exitX=1;exitY=0.5;exitDx=0;exitDy=0;" edge="1" parent="eNTQeGSR-nu6t5WLEABi-20" source="eNTQeGSR-nu6t5WLEABi-67">
          <mxGeometry relative="1" as="geometry">
            <mxPoint x="267" y="600" as="targetPoint" />
          </mxGeometry>
        </mxCell>
        <mxCell id="eNTQeGSR-nu6t5WLEABi-81" style="edgeStyle=orthogonalEdgeStyle;rounded=0;orthogonalLoop=1;jettySize=auto;html=1;exitX=0.5;exitY=1;exitDx=0;exitDy=0;entryX=0.5;entryY=0;entryDx=0;entryDy=0;" edge="1" parent="eNTQeGSR-nu6t5WLEABi-20" source="eNTQeGSR-nu6t5WLEABi-67" target="eNTQeGSR-nu6t5WLEABi-75">
          <mxGeometry relative="1" as="geometry" />
        </mxCell>
        <mxCell id="eNTQeGSR-nu6t5WLEABi-92" style="edgeStyle=orthogonalEdgeStyle;rounded=0;orthogonalLoop=1;jettySize=auto;html=1;exitX=0;exitY=0.5;exitDx=0;exitDy=0;entryX=0.5;entryY=0;entryDx=0;entryDy=0;" edge="1" parent="eNTQeGSR-nu6t5WLEABi-20" source="eNTQeGSR-nu6t5WLEABi-67" target="eNTQeGSR-nu6t5WLEABi-89">
          <mxGeometry relative="1" as="geometry" />
        </mxCell>
        <mxCell id="eNTQeGSR-nu6t5WLEABi-67" value="放货路径" style="rounded=0;whiteSpace=wrap;html=1;shadow=0;comic=0;labelBackgroundColor=none;strokeWidth=1;fontFamily=Verdana;fontSize=12;align=center;arcSize=50;" vertex="1" parent="eNTQeGSR-nu6t5WLEABi-20">
          <mxGeometry x="88" y="585" width="95" height="30" as="geometry" />
        </mxCell>
        <mxCell id="eNTQeGSR-nu6t5WLEABi-75" value="离开点位前RFID 数据正确" style="rounded=0;whiteSpace=wrap;html=1;shadow=0;comic=0;labelBackgroundColor=none;strokeWidth=1;fontFamily=Verdana;fontSize=12;align=center;arcSize=50;" vertex="1" parent="eNTQeGSR-nu6t5WLEABi-20">
          <mxGeometry x="88" y="653" width="95" height="30" as="geometry" />
        </mxCell>
        <mxCell id="eNTQeGSR-nu6t5WLEABi-94" style="edgeStyle=orthogonalEdgeStyle;rounded=0;orthogonalLoop=1;jettySize=auto;html=1;exitX=0;exitY=0.5;exitDx=0;exitDy=0;" edge="1" parent="eNTQeGSR-nu6t5WLEABi-20" source="eNTQeGSR-nu6t5WLEABi-89">
          <mxGeometry relative="1" as="geometry">
            <mxPoint x="-193" y="839.8333333333335" as="targetPoint" />
          </mxGeometry>
        </mxCell>
        <mxCell id="eNTQeGSR-nu6t5WLEABi-89" value="离开点位前RFID 数据错误" style="rounded=0;whiteSpace=wrap;html=1;shadow=0;comic=0;labelBackgroundColor=none;strokeWidth=1;fontFamily=Verdana;fontSize=12;align=center;arcSize=50;" vertex="1" parent="eNTQeGSR-nu6t5WLEABi-20">
          <mxGeometry x="12" y="825" width="95" height="30" as="geometry" />
        </mxCell>
        <mxCell id="eNTQeGSR-nu6t5WLEABi-97" value="abort任务" style="rounded=0;whiteSpace=wrap;html=1;shadow=0;comic=0;labelBackgroundColor=none;strokeWidth=1;fontFamily=Verdana;fontSize=12;align=center;arcSize=50;" vertex="1" parent="eNTQeGSR-nu6t5WLEABi-20">
          <mxGeometry x="12" y="880" width="95" height="30" as="geometry" />
        </mxCell>
        <mxCell id="eNTQeGSR-nu6t5WLEABi-104" value="abort任务成功" style="rounded=0;whiteSpace=wrap;html=1;shadow=0;comic=0;labelBackgroundColor=none;strokeWidth=1;fontFamily=Verdana;fontSize=12;align=center;arcSize=50;" vertex="1" parent="eNTQeGSR-nu6t5WLEABi-20">
          <mxGeometry x="12" y="930" width="95" height="30" as="geometry" />
        </mxCell>
        <mxCell id="eNTQeGSR-nu6t5WLEABi-112" value="放货路径" style="rounded=0;whiteSpace=wrap;html=1;shadow=0;comic=0;labelBackgroundColor=none;strokeWidth=1;fontFamily=Verdana;fontSize=12;align=center;arcSize=50;" vertex="1" parent="eNTQeGSR-nu6t5WLEABi-20">
          <mxGeometry x="12" y="980" width="95" height="30" as="geometry" />
        </mxCell>
        <mxCell id="eNTQeGSR-nu6t5WLEABi-30" value="OHT" style="swimlane;html=1;startSize=20;" vertex="1" parent="eNTQeGSR-nu6t5WLEABi-2">
          <mxGeometry x="570" y="20" width="430" height="1210" as="geometry" />
        </mxCell>
        <mxCell id="eNTQeGSR-nu6t5WLEABi-31" style="edgeStyle=orthogonalEdgeStyle;rounded=0;orthogonalLoop=1;jettySize=auto;html=1;exitX=0.5;exitY=1;exitDx=0;exitDy=0;entryX=0.5;entryY=0;entryDx=0;entryDy=0;" edge="1" parent="eNTQeGSR-nu6t5WLEABi-30" source="eNTQeGSR-nu6t5WLEABi-32" target="eNTQeGSR-nu6t5WLEABi-35">
          <mxGeometry relative="1" as="geometry" />
        </mxCell>
        <mxCell id="eNTQeGSR-nu6t5WLEABi-32" value="移动取货" style="rounded=0;whiteSpace=wrap;html=1;shadow=0;comic=0;labelBackgroundColor=none;strokeWidth=1;fontFamily=Verdana;fontSize=12;align=center;arcSize=50;" vertex="1" parent="eNTQeGSR-nu6t5WLEABi-30">
          <mxGeometry x="97" y="310" width="112.5" height="30" as="geometry" />
        </mxCell>
        <mxCell id="eNTQeGSR-nu6t5WLEABi-60" style="edgeStyle=orthogonalEdgeStyle;rounded=0;orthogonalLoop=1;jettySize=auto;html=1;exitX=0.5;exitY=1;exitDx=0;exitDy=0;entryX=0.5;entryY=0;entryDx=0;entryDy=0;" edge="1" parent="eNTQeGSR-nu6t5WLEABi-30" source="eNTQeGSR-nu6t5WLEABi-33" target="eNTQeGSR-nu6t5WLEABi-59">
          <mxGeometry relative="1" as="geometry" />
        </mxCell>
        <mxCell id="eNTQeGSR-nu6t5WLEABi-33" value="取货" style="rounded=0;whiteSpace=wrap;html=1;shadow=0;comic=0;labelBackgroundColor=none;strokeWidth=1;fontFamily=Verdana;fontSize=12;align=center;arcSize=50;" vertex="1" parent="eNTQeGSR-nu6t5WLEABi-30">
          <mxGeometry x="159" y="430" width="112.5" height="30" as="geometry" />
        </mxCell>
        <mxCell id="eNTQeGSR-nu6t5WLEABi-121" style="edgeStyle=orthogonalEdgeStyle;rounded=0;orthogonalLoop=1;jettySize=auto;html=1;exitX=0;exitY=0.5;exitDx=0;exitDy=0;" edge="1" parent="eNTQeGSR-nu6t5WLEABi-30" source="eNTQeGSR-nu6t5WLEABi-35" target="eNTQeGSR-nu6t5WLEABi-38">
          <mxGeometry relative="1" as="geometry" />
        </mxCell>
        <mxCell id="eNTQeGSR-nu6t5WLEABi-122" style="edgeStyle=orthogonalEdgeStyle;rounded=0;orthogonalLoop=1;jettySize=auto;html=1;exitX=1;exitY=0.5;exitDx=0;exitDy=0;entryX=0.75;entryY=0;entryDx=0;entryDy=0;" edge="1" parent="eNTQeGSR-nu6t5WLEABi-30" source="eNTQeGSR-nu6t5WLEABi-35" target="eNTQeGSR-nu6t5WLEABi-33">
          <mxGeometry relative="1" as="geometry" />
        </mxCell>
        <mxCell id="eNTQeGSR-nu6t5WLEABi-35" value="移动结束" style="rounded=0;whiteSpace=wrap;html=1;shadow=0;comic=0;labelBackgroundColor=none;strokeWidth=1;fontFamily=Verdana;fontSize=12;align=center;arcSize=50;" vertex="1" parent="eNTQeGSR-nu6t5WLEABi-30">
          <mxGeometry x="100" y="360" width="109.5" height="30" as="geometry" />
        </mxCell>
        <mxCell id="eNTQeGSR-nu6t5WLEABi-65" style="edgeStyle=orthogonalEdgeStyle;rounded=0;orthogonalLoop=1;jettySize=auto;html=1;exitX=0.5;exitY=1;exitDx=0;exitDy=0;entryX=0.5;entryY=0;entryDx=0;entryDy=0;" edge="1" parent="eNTQeGSR-nu6t5WLEABi-30" source="eNTQeGSR-nu6t5WLEABi-38" target="eNTQeGSR-nu6t5WLEABi-55">
          <mxGeometry relative="1" as="geometry" />
        </mxCell>
        <mxCell id="eNTQeGSR-nu6t5WLEABi-38" value="Idle信号" style="rounded=0;whiteSpace=wrap;html=1;shadow=0;comic=0;labelBackgroundColor=none;strokeWidth=1;fontFamily=Verdana;fontSize=12;align=center;arcSize=50;" vertex="1" parent="eNTQeGSR-nu6t5WLEABi-30">
          <mxGeometry x="14.5" y="470" width="112.5" height="30" as="geometry" />
        </mxCell>
        <mxCell id="eNTQeGSR-nu6t5WLEABi-49" value="移动放货" style="rounded=0;whiteSpace=wrap;html=1;shadow=0;comic=0;labelBackgroundColor=none;strokeWidth=1;fontFamily=Verdana;fontSize=12;align=center;arcSize=50;" vertex="1" parent="eNTQeGSR-nu6t5WLEABi-30">
          <mxGeometry x="159" y="754" width="112.5" height="30" as="geometry" />
        </mxCell>
        <mxCell id="eNTQeGSR-nu6t5WLEABi-72" style="edgeStyle=orthogonalEdgeStyle;rounded=0;orthogonalLoop=1;jettySize=auto;html=1;exitX=0.5;exitY=1;exitDx=0;exitDy=0;" edge="1" parent="eNTQeGSR-nu6t5WLEABi-30" source="eNTQeGSR-nu6t5WLEABi-51" target="eNTQeGSR-nu6t5WLEABi-71">
          <mxGeometry relative="1" as="geometry" />
        </mxCell>
        <mxCell id="eNTQeGSR-nu6t5WLEABi-123" style="edgeStyle=orthogonalEdgeStyle;rounded=0;orthogonalLoop=1;jettySize=auto;html=1;exitX=1;exitY=0.5;exitDx=0;exitDy=0;entryX=0.5;entryY=0;entryDx=0;entryDy=0;" edge="1" parent="eNTQeGSR-nu6t5WLEABi-30" source="eNTQeGSR-nu6t5WLEABi-51" target="eNTQeGSR-nu6t5WLEABi-82">
          <mxGeometry relative="1" as="geometry" />
        </mxCell>
        <mxCell id="eNTQeGSR-nu6t5WLEABi-51" value="读RFID" style="rounded=0;whiteSpace=wrap;html=1;shadow=0;comic=0;labelBackgroundColor=none;strokeWidth=1;fontFamily=Verdana;fontSize=12;align=center;arcSize=50;" vertex="1" parent="eNTQeGSR-nu6t5WLEABi-30">
          <mxGeometry x="159" y="585" width="112.5" height="30" as="geometry" />
        </mxCell>
        <mxCell id="eNTQeGSR-nu6t5WLEABi-83" style="edgeStyle=orthogonalEdgeStyle;rounded=0;orthogonalLoop=1;jettySize=auto;html=1;exitX=0.5;exitY=1;exitDx=0;exitDy=0;entryX=0;entryY=0.5;entryDx=0;entryDy=0;" edge="1" parent="eNTQeGSR-nu6t5WLEABi-30" source="eNTQeGSR-nu6t5WLEABi-55" target="eNTQeGSR-nu6t5WLEABi-49">
          <mxGeometry relative="1" as="geometry" />
        </mxCell>
        <mxCell id="eNTQeGSR-nu6t5WLEABi-55" value="active 信号" style="rounded=0;whiteSpace=wrap;html=1;shadow=0;comic=0;labelBackgroundColor=none;strokeWidth=1;fontFamily=Verdana;fontSize=12;align=center;arcSize=50;" vertex="1" parent="eNTQeGSR-nu6t5WLEABi-30">
          <mxGeometry x="14.5" y="710" width="112.5" height="30" as="geometry" />
        </mxCell>
        <mxCell id="eNTQeGSR-nu6t5WLEABi-61" style="edgeStyle=orthogonalEdgeStyle;rounded=0;orthogonalLoop=1;jettySize=auto;html=1;exitX=0.5;exitY=1;exitDx=0;exitDy=0;" edge="1" parent="eNTQeGSR-nu6t5WLEABi-30" source="eNTQeGSR-nu6t5WLEABi-59" target="eNTQeGSR-nu6t5WLEABi-51">
          <mxGeometry relative="1" as="geometry" />
        </mxCell>
        <mxCell id="eNTQeGSR-nu6t5WLEABi-59" value="y 轴收回" style="rounded=0;whiteSpace=wrap;html=1;shadow=0;comic=0;labelBackgroundColor=none;strokeWidth=1;fontFamily=Verdana;fontSize=12;align=center;arcSize=50;" vertex="1" parent="eNTQeGSR-nu6t5WLEABi-30">
          <mxGeometry x="159" y="480" width="112.5" height="30" as="geometry" />
        </mxCell>
        <mxCell id="eNTQeGSR-nu6t5WLEABi-70" value="ack" style="rounded=0;whiteSpace=wrap;html=1;shadow=0;comic=0;labelBackgroundColor=none;strokeWidth=1;fontFamily=Verdana;fontSize=12;align=center;arcSize=50;" vertex="1" parent="eNTQeGSR-nu6t5WLEABi-30">
          <mxGeometry x="24.5" y="585" width="112.5" height="30" as="geometry" />
        </mxCell>
        <mxCell id="eNTQeGSR-nu6t5WLEABi-74" style="edgeStyle=orthogonalEdgeStyle;rounded=0;orthogonalLoop=1;jettySize=auto;html=1;exitX=0;exitY=0.5;exitDx=0;exitDy=0;entryX=0.75;entryY=0;entryDx=0;entryDy=0;" edge="1" parent="eNTQeGSR-nu6t5WLEABi-30" source="eNTQeGSR-nu6t5WLEABi-71" target="eNTQeGSR-nu6t5WLEABi-55">
          <mxGeometry relative="1" as="geometry" />
        </mxCell>
        <mxCell id="eNTQeGSR-nu6t5WLEABi-71" value="正确" style="rounded=0;whiteSpace=wrap;html=1;shadow=0;comic=0;labelBackgroundColor=none;strokeWidth=1;fontFamily=Verdana;fontSize=12;align=center;arcSize=50;" vertex="1" parent="eNTQeGSR-nu6t5WLEABi-30">
          <mxGeometry x="159" y="660" width="112.5" height="30" as="geometry" />
        </mxCell>
        <mxCell id="eNTQeGSR-nu6t5WLEABi-82" value="错误" style="rounded=0;whiteSpace=wrap;html=1;shadow=0;comic=0;labelBackgroundColor=none;strokeWidth=1;fontFamily=Verdana;fontSize=12;align=center;arcSize=50;" vertex="1" parent="eNTQeGSR-nu6t5WLEABi-30">
          <mxGeometry x="287" y="660" width="112.5" height="30" as="geometry" />
        </mxCell>
        <mxCell id="eNTQeGSR-nu6t5WLEABi-103" style="edgeStyle=orthogonalEdgeStyle;rounded=0;orthogonalLoop=1;jettySize=auto;html=1;exitX=0.5;exitY=1;exitDx=0;exitDy=0;entryX=0.5;entryY=0;entryDx=0;entryDy=0;" edge="1" parent="eNTQeGSR-nu6t5WLEABi-30" source="eNTQeGSR-nu6t5WLEABi-98" target="eNTQeGSR-nu6t5WLEABi-102">
          <mxGeometry relative="1" as="geometry" />
        </mxCell>
        <mxCell id="eNTQeGSR-nu6t5WLEABi-98" value="取消移动" style="rounded=0;whiteSpace=wrap;html=1;shadow=0;comic=0;labelBackgroundColor=none;strokeWidth=1;fontFamily=Verdana;fontSize=12;align=center;arcSize=50;" vertex="1" parent="eNTQeGSR-nu6t5WLEABi-30">
          <mxGeometry x="287" y="880" width="95" height="30" as="geometry" />
        </mxCell>
        <mxCell id="eNTQeGSR-nu6t5WLEABi-102" value="取消移动成功" style="rounded=0;whiteSpace=wrap;html=1;shadow=0;comic=0;labelBackgroundColor=none;strokeWidth=1;fontFamily=Verdana;fontSize=12;align=center;arcSize=50;" vertex="1" parent="eNTQeGSR-nu6t5WLEABi-30">
          <mxGeometry x="287" y="930" width="95" height="30" as="geometry" />
        </mxCell>
        <mxCell id="eNTQeGSR-nu6t5WLEABi-118" style="edgeStyle=orthogonalEdgeStyle;rounded=0;orthogonalLoop=1;jettySize=auto;html=1;exitX=0.5;exitY=1;exitDx=0;exitDy=0;entryX=0.5;entryY=0;entryDx=0;entryDy=0;" edge="1" parent="eNTQeGSR-nu6t5WLEABi-30" source="eNTQeGSR-nu6t5WLEABi-114" target="eNTQeGSR-nu6t5WLEABi-115">
          <mxGeometry relative="1" as="geometry" />
        </mxCell>
        <mxCell id="eNTQeGSR-nu6t5WLEABi-114" value="Idle信号" style="rounded=0;whiteSpace=wrap;html=1;shadow=0;comic=0;labelBackgroundColor=none;strokeWidth=1;fontFamily=Verdana;fontSize=12;align=center;arcSize=50;" vertex="1" parent="eNTQeGSR-nu6t5WLEABi-30">
          <mxGeometry x="24.5" y="980" width="112.5" height="30" as="geometry" />
        </mxCell>
        <mxCell id="eNTQeGSR-nu6t5WLEABi-120" style="edgeStyle=orthogonalEdgeStyle;rounded=0;orthogonalLoop=1;jettySize=auto;html=1;exitX=0.5;exitY=1;exitDx=0;exitDy=0;entryX=0.5;entryY=0;entryDx=0;entryDy=0;" edge="1" parent="eNTQeGSR-nu6t5WLEABi-30" source="eNTQeGSR-nu6t5WLEABi-115" target="eNTQeGSR-nu6t5WLEABi-116">
          <mxGeometry relative="1" as="geometry" />
        </mxCell>
        <mxCell id="eNTQeGSR-nu6t5WLEABi-115" value="active 信号" style="rounded=0;whiteSpace=wrap;html=1;shadow=0;comic=0;labelBackgroundColor=none;strokeWidth=1;fontFamily=Verdana;fontSize=12;align=center;arcSize=50;" vertex="1" parent="eNTQeGSR-nu6t5WLEABi-30">
          <mxGeometry x="24.5" y="1030" width="112.5" height="30" as="geometry" />
        </mxCell>
        <mxCell id="eNTQeGSR-nu6t5WLEABi-116" value="移动放货" style="rounded=0;whiteSpace=wrap;html=1;shadow=0;comic=0;labelBackgroundColor=none;strokeWidth=1;fontFamily=Verdana;fontSize=12;align=center;arcSize=50;" vertex="1" parent="eNTQeGSR-nu6t5WLEABi-30">
          <mxGeometry x="159" y="1100" width="112.5" height="30" as="geometry" />
        </mxCell>
        <mxCell id="eNTQeGSR-nu6t5WLEABi-128" style="edgeStyle=orthogonalEdgeStyle;rounded=0;orthogonalLoop=1;jettySize=auto;html=1;exitX=0.5;exitY=1;exitDx=0;exitDy=0;" edge="1" parent="eNTQeGSR-nu6t5WLEABi-30" source="eNTQeGSR-nu6t5WLEABi-124" target="eNTQeGSR-nu6t5WLEABi-125">
          <mxGeometry relative="1" as="geometry" />
        </mxCell>
        <mxCell id="eNTQeGSR-nu6t5WLEABi-124" value="Idle信号" style="rounded=0;whiteSpace=wrap;html=1;shadow=0;comic=0;labelBackgroundColor=none;strokeWidth=1;fontFamily=Verdana;fontSize=12;align=center;arcSize=50;" vertex="1" parent="eNTQeGSR-nu6t5WLEABi-30">
          <mxGeometry x="14.5" y="140" width="112.5" height="30" as="geometry" />
        </mxCell>
        <mxCell id="eNTQeGSR-nu6t5WLEABi-127" style="edgeStyle=orthogonalEdgeStyle;rounded=0;orthogonalLoop=1;jettySize=auto;html=1;exitX=1;exitY=0.5;exitDx=0;exitDy=0;entryX=0.5;entryY=0;entryDx=0;entryDy=0;" edge="1" parent="eNTQeGSR-nu6t5WLEABi-30" source="eNTQeGSR-nu6t5WLEABi-125" target="eNTQeGSR-nu6t5WLEABi-32">
          <mxGeometry relative="1" as="geometry" />
        </mxCell>
        <mxCell id="eNTQeGSR-nu6t5WLEABi-125" value="active 信号" style="rounded=0;whiteSpace=wrap;html=1;shadow=0;comic=0;labelBackgroundColor=none;strokeWidth=1;fontFamily=Verdana;fontSize=12;align=center;arcSize=50;" vertex="1" parent="eNTQeGSR-nu6t5WLEABi-30">
          <mxGeometry x="14.5" y="250" width="112.5" height="30" as="geometry" />
        </mxCell>
        <mxCell id="eNTQeGSR-nu6t5WLEABi-79" style="edgeStyle=orthogonalEdgeStyle;rounded=0;orthogonalLoop=1;jettySize=auto;html=1;exitX=0;exitY=0.25;exitDx=0;exitDy=0;entryX=1;entryY=0.5;entryDx=0;entryDy=0;dashed=1;" edge="1" parent="eNTQeGSR-nu6t5WLEABi-2" source="eNTQeGSR-nu6t5WLEABi-71" target="eNTQeGSR-nu6t5WLEABi-75">
          <mxGeometry relative="1" as="geometry" />
        </mxCell>
        <mxCell id="eNTQeGSR-nu6t5WLEABi-85" style="edgeStyle=orthogonalEdgeStyle;rounded=0;orthogonalLoop=1;jettySize=auto;html=1;exitX=0;exitY=0.5;exitDx=0;exitDy=0;" edge="1" parent="eNTQeGSR-nu6t5WLEABi-2" source="eNTQeGSR-nu6t5WLEABi-38" target="eNTQeGSR-nu6t5WLEABi-66">
          <mxGeometry relative="1" as="geometry" />
        </mxCell>
        <mxCell id="eNTQeGSR-nu6t5WLEABi-88" style="edgeStyle=orthogonalEdgeStyle;rounded=0;orthogonalLoop=1;jettySize=auto;html=1;exitX=0;exitY=0.5;exitDx=0;exitDy=0;entryX=1;entryY=0.5;entryDx=0;entryDy=0;" edge="1" parent="eNTQeGSR-nu6t5WLEABi-2" source="eNTQeGSR-nu6t5WLEABi-75" target="eNTQeGSR-nu6t5WLEABi-87">
          <mxGeometry relative="1" as="geometry" />
        </mxCell>
        <mxCell id="eNTQeGSR-nu6t5WLEABi-91" style="edgeStyle=orthogonalEdgeStyle;rounded=0;orthogonalLoop=1;jettySize=auto;html=1;exitX=0.5;exitY=1;exitDx=0;exitDy=0;entryX=1;entryY=0.5;entryDx=0;entryDy=0;" edge="1" parent="eNTQeGSR-nu6t5WLEABi-2" source="eNTQeGSR-nu6t5WLEABi-82" target="eNTQeGSR-nu6t5WLEABi-89">
          <mxGeometry relative="1" as="geometry" />
        </mxCell>
        <mxCell id="eNTQeGSR-nu6t5WLEABi-99" style="edgeStyle=orthogonalEdgeStyle;rounded=0;orthogonalLoop=1;jettySize=auto;html=1;exitX=1;exitY=0.5;exitDx=0;exitDy=0;entryX=0;entryY=0.5;entryDx=0;entryDy=0;" edge="1" parent="eNTQeGSR-nu6t5WLEABi-2" source="eNTQeGSR-nu6t5WLEABi-95" target="eNTQeGSR-nu6t5WLEABi-97">
          <mxGeometry relative="1" as="geometry" />
        </mxCell>
        <mxCell id="eNTQeGSR-nu6t5WLEABi-100" style="edgeStyle=orthogonalEdgeStyle;rounded=0;orthogonalLoop=1;jettySize=auto;html=1;exitX=1;exitY=0.5;exitDx=0;exitDy=0;entryX=0;entryY=0.5;entryDx=0;entryDy=0;" edge="1" parent="eNTQeGSR-nu6t5WLEABi-2" source="eNTQeGSR-nu6t5WLEABi-97" target="eNTQeGSR-nu6t5WLEABi-98">
          <mxGeometry relative="1" as="geometry" />
        </mxCell>
        <mxCell id="eNTQeGSR-nu6t5WLEABi-105" style="edgeStyle=orthogonalEdgeStyle;rounded=0;orthogonalLoop=1;jettySize=auto;html=1;exitX=0;exitY=0.5;exitDx=0;exitDy=0;" edge="1" parent="eNTQeGSR-nu6t5WLEABi-2" source="eNTQeGSR-nu6t5WLEABi-102" target="eNTQeGSR-nu6t5WLEABi-104">
          <mxGeometry relative="1" as="geometry" />
        </mxCell>
        <mxCell id="eNTQeGSR-nu6t5WLEABi-107" style="edgeStyle=orthogonalEdgeStyle;rounded=0;orthogonalLoop=1;jettySize=auto;html=1;exitX=0;exitY=0.5;exitDx=0;exitDy=0;" edge="1" parent="eNTQeGSR-nu6t5WLEABi-2" source="eNTQeGSR-nu6t5WLEABi-104" target="eNTQeGSR-nu6t5WLEABi-106">
          <mxGeometry relative="1" as="geometry" />
        </mxCell>
        <mxCell id="eNTQeGSR-nu6t5WLEABi-113" style="edgeStyle=orthogonalEdgeStyle;rounded=0;orthogonalLoop=1;jettySize=auto;html=1;exitX=1;exitY=0.5;exitDx=0;exitDy=0;entryX=0;entryY=0.5;entryDx=0;entryDy=0;" edge="1" parent="eNTQeGSR-nu6t5WLEABi-2" source="eNTQeGSR-nu6t5WLEABi-109" target="eNTQeGSR-nu6t5WLEABi-112">
          <mxGeometry relative="1" as="geometry" />
        </mxCell>
        <mxCell id="eNTQeGSR-nu6t5WLEABi-117" style="edgeStyle=orthogonalEdgeStyle;rounded=0;orthogonalLoop=1;jettySize=auto;html=1;exitX=1;exitY=0.5;exitDx=0;exitDy=0;entryX=0;entryY=0.5;entryDx=0;entryDy=0;" edge="1" parent="eNTQeGSR-nu6t5WLEABi-2" source="eNTQeGSR-nu6t5WLEABi-112" target="eNTQeGSR-nu6t5WLEABi-114">
          <mxGeometry relative="1" as="geometry" />
        </mxCell>
        <mxCell id="eNTQeGSR-nu6t5WLEABi-129" style="edgeStyle=orthogonalEdgeStyle;rounded=0;orthogonalLoop=1;jettySize=auto;html=1;exitX=1;exitY=0.5;exitDx=0;exitDy=0;entryX=0;entryY=0.5;entryDx=0;entryDy=0;" edge="1" parent="eNTQeGSR-nu6t5WLEABi-2" source="eNTQeGSR-nu6t5WLEABi-26" target="eNTQeGSR-nu6t5WLEABi-124">
          <mxGeometry relative="1" as="geometry" />
        </mxCell>
        <mxCell id="eNTQeGSR-nu6t5WLEABi-130" style="edgeStyle=orthogonalEdgeStyle;rounded=0;orthogonalLoop=1;jettySize=auto;html=1;exitX=1;exitY=0.5;exitDx=0;exitDy=0;entryX=0.5;entryY=0;entryDx=0;entryDy=0;" edge="1" parent="eNTQeGSR-nu6t5WLEABi-2" source="eNTQeGSR-nu6t5WLEABi-5" target="eNTQeGSR-nu6t5WLEABi-25">
          <mxGeometry relative="1" as="geometry" />
        </mxCell>
        <mxCell id="eNTQeGSR-nu6t5WLEABi-133" style="edgeStyle=orthogonalEdgeStyle;rounded=0;orthogonalLoop=1;jettySize=auto;html=1;" edge="1" parent="1" source="eNTQeGSR-nu6t5WLEABi-37">
          <mxGeometry relative="1" as="geometry">
            <mxPoint x="230" y="180" as="targetPoint" />
          </mxGeometry>
        </mxCell>
        <mxCell id="eNTQeGSR-nu6t5WLEABi-37" value="MES" style="shape=umlActor;verticalLabelPosition=bottom;verticalAlign=top;html=1;outlineConnect=0;" vertex="1" parent="1">
          <mxGeometry x="40" y="150" width="30" height="60" as="geometry" />
        </mxCell>
      </root>
    </mxGraphModel>
  </diagram>
</mxfile>
